<svg xmlns="http://www.w3.org/2000/svg" version="1.1" xmlns:xlink="http://www.w3.org/1999/xlink" xmlns:svgjs="http://svgjs.dev/svgjs" width="1000" height="1000" viewBox="0 0 1000 1000"><rect width="1000" height="1000" fill="#000000"></rect><g transform="matrix(0.7,0,0,0.7,149.5757691173285,421.97717665970197)"><svg viewBox="0 0 396 89" data-background-color="#c9efc7" preserveAspectRatio="xMidYMid meet" height="224" width="1000" xmlns="http://www.w3.org/2000/svg" xmlns:xlink="http://www.w3.org/1999/xlink"><g id="tight-bounds" transform="matrix(1,0,0,1,0.2399934707684679,-0.21408624179511548)"><svg viewBox="0 0 395.52 89.42817248359023" height="89.42817248359023" width="395.52"><g><svg viewBox="0 0 540.5315172069517 122.21567999999999" height="89.42817248359023" width="395.52"><g transform="matrix(1,0,0,1,145.0115172069517,12.827122758620696)"><svg viewBox="0 0 395.52 96.5614344827586" height="96.5614344827586" width="395.52"><g id="textblocktransform"><svg viewBox="0 0 395.52 96.5614344827586" height="96.5614344827586" width="395.52" id="textblock"><g><svg viewBox="0 0 395.52 96.5614344827586" height="96.5614344827586" width="395.52"><g transform="matrix(1,0,0,1,0,0)"><svg width="395.52" viewBox="1.7999999523162842 -41 217.489990234375 53.099998474121094" height="96.5614344827586" data-palette-color="#454545"><path d="M12.7 0.55Q9.6 0.55 7.15-0.93 4.7-2.4 3.25-5.5 1.8-8.6 1.8-13.25L1.8-13.25Q1.8-17.45 3.53-20.93 5.25-24.4 8.6-26.45 11.95-28.5 16.65-28.5L16.65-28.5Q18.55-28.5 20.25-28.1L20.25-28.1 20.25-36.55 15.35-37.25 15.35-40 25.65-41 25.8-41 27.2-39.95 27.2-3.05 29.9-3.05 29.9-0.2Q26.3 0.55 23.95 0.55L23.95 0.55Q22.35 0.55 21.68 0.03 21-0.5 21-2.05L21-2.05 21-3.45Q19.7-1.7 17.45-0.58 15.2 0.55 12.7 0.55L12.7 0.55ZM15.3-3.6Q16.95-3.6 18.23-4.28 19.5-4.95 20.25-5.9L20.25-5.9 20.25-24.1Q19.9-24.6 18.78-24.95 17.65-25.3 16.35-25.3L16.35-25.3Q13.15-25.3 11.23-22.53 9.3-19.75 9.3-13.65L9.3-13.65Q9.3-8.55 10.95-6.08 12.6-3.6 15.3-3.6L15.3-3.6ZM37.2-3.5L37.2-33.4 33.3-34.05 33.3-37.15 40.75-37.15Q42.45-37.15 45.15-37.35L45.15-37.35Q45.8-37.4 46.7-37.45 47.6-37.5 48.8-37.5L48.8-37.5Q56.35-37.5 59.37-35.38 62.4-33.25 62.4-29.05L62.4-29.05Q62.4-25.35 60.17-22.88 57.95-20.4 54.35-19.85L54.35-19.85Q59.3-19.9 62.12-17.6 64.95-15.3 64.95-11.2L64.95-11.2Q64.95-6 61.3-2.85 57.65 0.3 49.1 0.3L49.1 0.3Q46.85 0.3 44.95 0.15L44.95 0.15Q44.45 0.15 43.25 0.08 42.05 0 40.8 0L40.8 0 33.25 0 33.25-3 37.2-3.5ZM44.45-20.95Q45-20.9 46.7-20.9L46.7-20.9 49.05-20.9Q52.1-20.9 53.6-22.8 55.1-24.7 55.1-28.15L55.1-28.15Q55.1-31.45 53.55-32.95 52-34.45 48.4-34.45L48.4-34.45Q47.45-34.45 44.45-34.25L44.45-34.25 44.45-20.95ZM44.45-3.3Q45.6-2.85 48.85-2.85L48.85-2.85Q53.1-2.85 55-4.85 56.9-6.85 56.9-10.65L56.9-10.65Q56.9-14.3 55.17-15.88 53.45-17.45 49.7-17.45L49.7-17.45Q45.5-17.45 44.45-17.35L44.45-17.35 44.45-3.3ZM68.25-7.8Q68.25-12.35 72.82-14.65 77.4-16.95 84.65-17L84.65-17 84.65-18.15Q84.65-20.2 84.22-21.35 83.8-22.5 82.67-23.08 81.55-23.65 79.4-23.65L79.4-23.65Q76.95-23.65 75-23.03 73.05-22.4 70.95-21.4L70.95-21.4 69.39-24.6Q70.14-25.25 71.92-26.15 73.7-27.05 76.15-27.73 78.59-28.4 81.2-28.4L81.2-28.4Q85.05-28.4 87.22-27.4 89.4-26.4 90.34-24.2 91.3-22 91.3-18.3L91.3-18.3 91.3-3 94-3 94-0.2Q93 0.05 91.15 0.3 89.3 0.55 87.9 0.55L87.9 0.55Q86.2 0.55 85.62 0.05 85.05-0.45 85.05-2L85.05-2 85.05-3.35Q83.7-1.85 81.55-0.65 79.4 0.55 76.7 0.55L76.7 0.55Q74.39 0.55 72.47-0.43 70.55-1.4 69.39-3.28 68.25-5.15 68.25-7.8L68.25-7.8ZM79.9-3.6Q80.95-3.6 82.3-4.23 83.65-4.85 84.65-5.75L84.65-5.75 84.65-13.95Q80.15-13.95 77.92-12.43 75.7-10.9 75.7-8.5L75.7-8.5Q75.7-6.1 76.82-4.85 77.95-3.6 79.9-3.6L79.9-3.6ZM96.44-13.75Q96.44-18.05 98.17-21.4 99.89-24.75 103.12-26.63 106.34-28.5 110.64-28.5L110.64-28.5Q112.64-28.5 114.09-28.2 115.54-27.9 117.34-27.4L117.34-27.4 118.79-27 118.49-18.45 114.14-18.45 112.89-23.95Q112.59-25.25 109.94-25.25L109.94-25.25Q107.14-25.25 105.57-22.8 103.99-20.35 103.94-15.15L103.94-15.15Q103.94-9.65 105.84-6.73 107.74-3.8 110.89-3.8L110.89-3.8Q114.69-3.8 117.89-5.85L117.89-5.85 119.04-3.25Q117.74-1.85 115.07-0.65 112.39 0.55 109.29 0.55L109.29 0.55Q102.89 0.55 99.67-3.4 96.44-7.35 96.44-13.75L96.44-13.75ZM125.34-3.45L125.34-36.55 121.74-37.2 121.74-39.9 130.94-41 131.04-41 132.39-40.05 132.39-16.3 132.24-13.65 142.44-24.35 138.74-24.9 138.74-27.75 151.79-27.75 151.79-24.9 147.74-24.25 141.59-18.35 150.34-3.4 153.09-3 153.09 0 139.89 0 139.89-3 142.44-3.45 136.74-14 132.24-9.45 132.34-6.9 132.34-3.45 135.49-3 135.49 0 122.44 0 122.44-3 125.34-3.45ZM171.49 0.4Q163.89 0.4 160.19-3.4 156.49-7.2 156.49-15.35L156.49-15.35 156.49-33.4 153.19-34.05 153.19-37.15 168.29-37.15 168.29-34.05 164.04-33.35 164.04-14.7Q164.04-2.8 172.49-2.8L172.49-2.8Q176.64-2.8 178.64-5.88 180.64-8.95 180.64-14.5L180.64-14.5 180.64-33.35 176.34-34.05 176.34-37.15 188.84-37.15 188.84-34.05 185.44-33.4 185.44-14.9Q185.44-7.1 181.66-3.35 177.89 0.4 171.49 0.4L171.49 0.4ZM219.29-14.8Q219.29-10.6 217.56-7.1 215.84-3.6 212.51-1.53 209.19 0.55 204.59 0.55L204.59 0.55Q203.59 0.55 202.51 0.38 201.44 0.2 200.79-0.05L200.79-0.05 200.94 4.1 200.94 8.65 205.59 9.25 205.59 12.1 190.74 12.1 190.74 9.25 193.99 8.65 193.99-23.05 190.74-23.95 190.74-27.4 198.99-28.45 199.09-28.45 200.34-27.45 200.34-24.65Q201.59-26.2 203.74-27.35 205.89-28.5 208.44-28.5L208.44-28.5Q213.19-28.5 216.24-25.13 219.29-21.75 219.29-14.8L219.29-14.8ZM205.84-24.35Q204.34-24.35 202.99-23.7 201.64-23.05 200.94-22.25L200.94-22.25 200.94-3.7Q201.29-3.2 202.36-2.85 203.44-2.5 204.74-2.5L204.74-2.5Q207.99-2.5 209.91-5.33 211.84-8.15 211.84-14.2L211.84-14.2Q211.84-19.3 210.19-21.83 208.54-24.35 205.84-24.35L205.84-24.35Z" opacity="1" transform="matrix(1,0,0,1,0,0)" fill="#ffffff" class="undefined-text-0" data-fill-palette-color="primary" id="text-0"></path></svg></g></svg></g></svg></g></svg></g><g><svg viewBox="0 0 122.21567999999999 122.21567999999999" height="122.21567999999999" width="122.21567999999999"><g><svg xmlns="http://www.w3.org/2000/svg" xmlns:xlink="http://www.w3.org/1999/xlink" version="1.1" x="0" y="0" viewBox="10 10 80 80" enable-background="new 0 0 100 100" xml:space="preserve" height="122.21567999999999" width="122.21567999999999" class="icon-icon-0" data-fill-palette-color="accent" id="icon-0"><path d="M50 10c-22.1 0-40 17.9-40 40s17.9 40 40 40c22.1 0 40-17.9 40-40S72.1 10 50 10zM52.7 61.1v15.5h-5.3V61.1H42l8-13.8 8 13.8H52.7zM65.2 56.7h-2.9V54h2.9c3.8 0 6.9-3 6.9-6.7s-3.1-6.7-6.9-6.7c-0.7 0-1.4 0.1-2.2 0.4l-1.4 0.5L61.2 40c-0.9-4.7-5-8-9.5-6.8L51 33.3l-0.5-0.5c-2-1.8-4.5-2.8-7.1-2.8-5.4 0-10.5 4.9-10.9 10.5l-0.1 0.8-0.7 0.3c-2.3 1.1-3.8 3.4-3.8 5.9 0 3.6 2.9 6.5 6.5 6.5h3.3v2.7h-3.3c-5 0-9.1-4.1-9.1-9.1 0-3.3 1.8-6.3 4.6-7.9 0.8-6.7 6.9-12.3 13.5-12.3 3 0 6 1.1 8.4 3.1 5.2-0.9 10.1 2.5 11.7 7.7 6-1.2 11.3 3.5 11.3 9.2C74.8 52.5 70.5 56.7 65.2 56.7z" fill="#ffffff" data-fill-palette-color="accent"></path></svg></g></svg></g></svg></g><defs></defs></svg><rect width="395.52" height="89.42817248359023" fill="none" stroke="none" visibility="hidden"></rect></g></svg></g></svg>